<svg xmlns="http://www.w3.org/2000/svg" viewBox="0 0 520 260" fill="none">
  <rect width="520" height="260" rx="18" fill="#F2E5E2"/>
  <circle cx="455" cy="46" r="103" fill="#EAC7C0" opacity=".7"/>
  <rect x="44" y="34" width="432" height="192" rx="15" fill="#25343B" stroke="#8CABA8"/>
  <rect x="44" y="34" width="432" height="30" rx="15" fill="#344850"/><path d="M44 54h432" stroke="#496068"/>
  <circle cx="62" cy="49" r="4" fill="#D98D79"/><circle cx="76" cy="49" r="4" fill="#B5BDA6"/>
  <rect x="65" y="82" width="194" height="124" rx="9" fill="#1B292F"/>
  <path d="m80 101 9 7-9 7m18 0h24" stroke="#8FD4C2" stroke-width="3" stroke-linecap="round" stroke-linejoin="round"/>
  <rect x="80" y="129" width="105" height="5" rx="2.5" fill="#5A9A91"/>
  <rect x="80" y="144" width="144" height="5" rx="2.5" fill="#4D7C77"/>
  <rect x="80" y="159" width="88" height="5" rx="2.5" fill="#C2806F"/>
  <rect x="80" y="174" width="126" height="5" rx="2.5" fill="#5A9A91"/>
  <rect x="273" y="82" width="182" height="124" rx="9" fill="#31474D"/>
  <circle cx="364" cy="132" r="35" stroke="#6A8F8B" stroke-width="2" stroke-dasharray="4 5"/>
  <circle cx="364" cy="132" r="19" stroke="#9BCFC4" stroke-width="2"/>
  <circle cx="364" cy="132" r="5" fill="#E59C87"/>
  <path d="M364 96v72M328 132h72" stroke="#84B5AC" stroke-opacity=".55"/>
  <rect x="299" y="184" width="43" height="5" rx="2.5" fill="#7FB6AA"/>
  <rect x="350" y="184" width="78" height="5" rx="2.5" fill="#557E79"/>
</svg>
